<mxfile host="app.diagrams.net" modified="2023-06-22T03:44:22.891Z" agent="Mozilla/5.0 (Windows NT 10.0; Win64; x64) AppleWebKit/537.36 (KHTML, like Gecko) Chrome/114.0.0.0 Safari/537.36" etag="c5U-lQPVQ7MD40IUKzYf" version="21.5.0" type="google" pages="3">
  <diagram id="83W2AAYpzAIjxqk1DytA" name="FINAL">
    <mxGraphModel grid="0" page="0" gridSize="10" guides="1" tooltips="1" connect="1" arrows="1" fold="1" pageScale="1" pageWidth="850" pageHeight="1100" math="0" shadow="0">
      <root>
        <mxCell id="0" />
        <mxCell id="1" parent="0" />
        <mxCell id="PjeE3rzBDWUxAi92ESi4-1" value="Inbound Logistics" style="rounded=0;whiteSpace=wrap;html=1;fontStyle=1;labelBackgroundColor=none;fillColor=#dae8fc;strokeColor=default;" vertex="1" parent="1">
          <mxGeometry x="-40" y="230" width="150" height="30" as="geometry" />
        </mxCell>
        <mxCell id="PjeE3rzBDWUxAi92ESi4-2" value="Operations" style="rounded=0;whiteSpace=wrap;html=1;fontStyle=1;labelBackgroundColor=none;fillColor=#d5e8d4;strokeColor=default;" vertex="1" parent="1">
          <mxGeometry x="110" y="230" width="140" height="30" as="geometry" />
        </mxCell>
        <mxCell id="PjeE3rzBDWUxAi92ESi4-3" value="Marketing &amp;amp; Sales" style="rounded=0;whiteSpace=wrap;html=1;fontStyle=1;labelBackgroundColor=none;fillColor=#ffe6cc;strokeColor=default;" vertex="1" parent="1">
          <mxGeometry x="390" y="230" width="150" height="30" as="geometry" />
        </mxCell>
        <mxCell id="PjeE3rzBDWUxAi92ESi4-4" value="Service" style="rounded=0;whiteSpace=wrap;html=1;fontStyle=1;labelBackgroundColor=none;fillColor=#e1d5e7;strokeColor=default;" vertex="1" parent="1">
          <mxGeometry x="540" y="230" width="130" height="30" as="geometry" />
        </mxCell>
        <mxCell id="PjeE3rzBDWUxAi92ESi4-5" value="&lt;b&gt;Procurement &lt;/b&gt;focuses on purchasing the equipment" style="rounded=0;whiteSpace=wrap;html=1;labelBackgroundColor=none;" vertex="1" parent="1">
          <mxGeometry x="-40" y="200" width="710" height="30" as="geometry" />
        </mxCell>
        <mxCell id="PjeE3rzBDWUxAi92ESi4-6" value="&lt;b&gt;Technology Department &lt;/b&gt;focuses on management information systems, hardware and IT" style="rounded=0;whiteSpace=wrap;html=1;labelBackgroundColor=none;" vertex="1" parent="1">
          <mxGeometry x="-40" y="170" width="710" height="30" as="geometry" />
        </mxCell>
        <mxCell id="PjeE3rzBDWUxAi92ESi4-7" value="&lt;b&gt;Human Resource Management&lt;/b&gt;&amp;nbsp;focuses on recruiting, managing and motivating employees&amp;nbsp;" style="rounded=0;whiteSpace=wrap;html=1;labelBackgroundColor=none;" vertex="1" parent="1">
          <mxGeometry x="-40" y="140" width="710" height="30" as="geometry" />
        </mxCell>
        <mxCell id="PjeE3rzBDWUxAi92ESi4-8" value="&lt;b&gt;Firm Infrastructure &lt;/b&gt;focuses on management, finance and legal" style="rounded=0;whiteSpace=wrap;html=1;labelBackgroundColor=none;" vertex="1" parent="1">
          <mxGeometry x="-40" y="110" width="710" height="30" as="geometry" />
        </mxCell>
        <mxCell id="PjeE3rzBDWUxAi92ESi4-9" value="Margin" style="triangle;whiteSpace=wrap;html=1;labelBackgroundColor=none;" vertex="1" parent="1">
          <mxGeometry x="670" y="110" width="50" height="280" as="geometry" />
        </mxCell>
        <mxCell id="PjeE3rzBDWUxAi92ESi4-10" value="Porter&#39;s Value Chain Analysis of Gotham Treats" style="text;html=1;strokeColor=none;fillColor=none;align=center;verticalAlign=middle;whiteSpace=wrap;rounded=0;fontStyle=5;labelBackgroundColor=none;" vertex="1" parent="1">
          <mxGeometry x="260" y="70" width="280" height="30" as="geometry" />
        </mxCell>
        <mxCell id="PjeE3rzBDWUxAi92ESi4-11" value="Gotham Treats has its suppliers for obtaining raw material and handles inventory control." style="rounded=0;whiteSpace=wrap;html=1;labelBackgroundColor=none;" vertex="1" parent="1">
          <mxGeometry x="-40" y="260" width="150" height="130" as="geometry" />
        </mxCell>
        <mxCell id="PjeE3rzBDWUxAi92ESi4-12" value="Gotham Treats uses those raw materials to convert and create finished goods into production" style="rounded=0;whiteSpace=wrap;html=1;labelBackgroundColor=none;" vertex="1" parent="1">
          <mxGeometry x="110" y="260" width="140" height="130" as="geometry" />
        </mxCell>
        <mxCell id="PjeE3rzBDWUxAi92ESi4-13" value="Gotham Treats utilizes their social media platform to conduct marketing and perform point-of-sale onsite and online" style="rounded=0;whiteSpace=wrap;html=1;labelBackgroundColor=none;" vertex="1" parent="1">
          <mxGeometry x="390" y="260" width="150" height="130" as="geometry" />
        </mxCell>
        <mxCell id="PjeE3rzBDWUxAi92ESi4-14" value="Gotham Treats opens feedback and inquiries from customers, offering customer service." style="rounded=0;whiteSpace=wrap;html=1;labelBackgroundColor=none;" vertex="1" parent="1">
          <mxGeometry x="540" y="260" width="130" height="130" as="geometry" />
        </mxCell>
        <mxCell id="PjeE3rzBDWUxAi92ESi4-15" value="Supporting Activities" style="text;html=1;strokeColor=none;fillColor=none;align=center;verticalAlign=middle;whiteSpace=wrap;rounded=0;fontStyle=1;rotation=-90;labelBackgroundColor=none;" vertex="1" parent="1">
          <mxGeometry x="-130" y="147" width="120" height="30" as="geometry" />
        </mxCell>
        <mxCell id="PjeE3rzBDWUxAi92ESi4-16" value="Primary Activities" style="text;html=1;strokeColor=none;fillColor=none;align=center;verticalAlign=middle;whiteSpace=wrap;rounded=0;fontStyle=1;labelBackgroundColor=none;" vertex="1" parent="1">
          <mxGeometry x="100" y="392" width="570" height="30" as="geometry" />
        </mxCell>
        <mxCell id="62eYMFdiTSPehqSu2kbw-1" value="Primary Activities" style="text;html=1;strokeColor=none;fillColor=none;align=center;verticalAlign=middle;whiteSpace=wrap;rounded=0;fontStyle=1;labelBackgroundColor=none;" vertex="1" parent="1">
          <mxGeometry x="897.81" y="100" width="105" height="30" as="geometry" />
        </mxCell>
        <mxCell id="62eYMFdiTSPehqSu2kbw-2" value="Gotham Treats needs consistent quality control for raw materials inbound logistics to make sure their sold product stays consistent in quality." style="text;html=1;strokeColor=none;fillColor=none;align=left;verticalAlign=top;whiteSpace=wrap;rounded=0;" vertex="1" parent="1">
          <mxGeometry x="1205.31" y="140" width="484.69" height="30" as="geometry" />
        </mxCell>
        <mxCell id="62eYMFdiTSPehqSu2kbw-3" value="Inbound Logistics" style="rounded=0;whiteSpace=wrap;html=1;fontStyle=1;labelBackgroundColor=none;" vertex="1" parent="1">
          <mxGeometry x="890.31" y="140" width="120" height="30" as="geometry" />
        </mxCell>
        <mxCell id="62eYMFdiTSPehqSu2kbw-5" value="Operations" style="rounded=0;whiteSpace=wrap;html=1;fontStyle=1;labelBackgroundColor=none;" vertex="1" parent="1">
          <mxGeometry x="892.81" y="310" width="115" height="30" as="geometry" />
        </mxCell>
        <mxCell id="62eYMFdiTSPehqSu2kbw-6" value="Service" style="rounded=0;whiteSpace=wrap;html=1;fontStyle=1;labelBackgroundColor=none;" vertex="1" parent="1">
          <mxGeometry x="890.6199999999999" y="613" width="125" height="30" as="geometry" />
        </mxCell>
        <mxCell id="62eYMFdiTSPehqSu2kbw-7" value="Marketing &amp;amp; Sales" style="rounded=0;whiteSpace=wrap;html=1;fontStyle=1;labelBackgroundColor=none;" vertex="1" parent="1">
          <mxGeometry x="890.6199999999999" y="480" width="125" height="30" as="geometry" />
        </mxCell>
        <mxCell id="62eYMFdiTSPehqSu2kbw-8" value="Supporting Activities" style="text;html=1;strokeColor=none;fillColor=none;align=center;verticalAlign=middle;whiteSpace=wrap;rounded=0;fontStyle=1;labelBackgroundColor=none;" vertex="1" parent="1">
          <mxGeometry x="893.7499999999999" y="750" width="125" height="30" as="geometry" />
        </mxCell>
        <mxCell id="62eYMFdiTSPehqSu2kbw-9" value="HRM" style="rounded=0;whiteSpace=wrap;html=1;fontStyle=1;labelBackgroundColor=none;" vertex="1" parent="1">
          <mxGeometry x="885.6199999999999" y="860" width="135.31" height="30" as="geometry" />
        </mxCell>
        <mxCell id="62eYMFdiTSPehqSu2kbw-10" value="Technology" style="rounded=0;whiteSpace=wrap;html=1;fontStyle=1;labelBackgroundColor=none;" vertex="1" parent="1">
          <mxGeometry x="883.1199999999999" y="970" width="135" height="30" as="geometry" />
        </mxCell>
        <mxCell id="62eYMFdiTSPehqSu2kbw-11" value="Firm Infrastructure" style="rounded=0;whiteSpace=wrap;html=1;fontStyle=1;labelBackgroundColor=none;" vertex="1" parent="1">
          <mxGeometry x="890.31" y="783.5" width="131.87" height="30" as="geometry" />
        </mxCell>
        <mxCell id="62eYMFdiTSPehqSu2kbw-12" value="Procurement" style="rounded=0;whiteSpace=wrap;html=1;fontStyle=1;labelBackgroundColor=none;" vertex="1" parent="1">
          <mxGeometry x="882.81" y="1080" width="135.31" height="30" as="geometry" />
        </mxCell>
        <mxCell id="62eYMFdiTSPehqSu2kbw-13" value="Values to Achieve" style="text;html=1;strokeColor=none;fillColor=none;align=center;verticalAlign=middle;whiteSpace=wrap;rounded=0;fontStyle=1;labelBackgroundColor=none;" vertex="1" parent="1">
          <mxGeometry x="1285.31" y="100" width="105" height="30" as="geometry" />
        </mxCell>
        <mxCell id="62eYMFdiTSPehqSu2kbw-14" value="Consistent Quality" style="rounded=0;whiteSpace=wrap;html=1;fontStyle=1;labelBackgroundColor=none;strokeColor=none;fillColor=#dae8fc;" vertex="1" parent="1">
          <mxGeometry x="1063.31" y="147" width="120" height="30" as="geometry" />
        </mxCell>
        <mxCell id="62eYMFdiTSPehqSu2kbw-15" value="Time Efficient" style="rounded=0;whiteSpace=wrap;html=1;fontStyle=1;labelBackgroundColor=none;strokeColor=none;fillColor=#dae8fc;" vertex="1" parent="1">
          <mxGeometry x="1063.31" y="190" width="120" height="30" as="geometry" />
        </mxCell>
        <mxCell id="62eYMFdiTSPehqSu2kbw-16" value="Cost Effective" style="rounded=0;whiteSpace=wrap;html=1;fontStyle=1;labelBackgroundColor=none;strokeColor=none;fillColor=#dae8fc;" vertex="1" parent="1">
          <mxGeometry x="1063.31" y="230" width="120" height="30" as="geometry" />
        </mxCell>
        <mxCell id="62eYMFdiTSPehqSu2kbw-17" value="Gotham Treats&amp;nbsp;wants to purchase their raw materials at the best price as possible to maximize their profit.&amp;nbsp;" style="text;html=1;strokeColor=none;fillColor=none;align=left;verticalAlign=top;whiteSpace=wrap;rounded=0;" vertex="1" parent="1">
          <mxGeometry x="1205.31" y="230" width="474.69" height="30" as="geometry" />
        </mxCell>
        <mxCell id="62eYMFdiTSPehqSu2kbw-18" value="Established Standard" style="rounded=0;whiteSpace=wrap;html=1;fontStyle=1;labelBackgroundColor=none;strokeColor=none;fillColor=#d5e8d4;" vertex="1" parent="1">
          <mxGeometry x="1063.31" y="310" width="120" height="30" as="geometry" />
        </mxCell>
        <mxCell id="62eYMFdiTSPehqSu2kbw-19" value="On-time" style="rounded=0;whiteSpace=wrap;html=1;fontStyle=1;labelBackgroundColor=none;strokeColor=none;fillColor=#d5e8d4;" vertex="1" parent="1">
          <mxGeometry x="1063.31" y="363" width="120" height="30" as="geometry" />
        </mxCell>
        <mxCell id="62eYMFdiTSPehqSu2kbw-20" value="Effective" style="rounded=0;whiteSpace=wrap;html=1;fontStyle=1;labelBackgroundColor=none;strokeColor=none;fillColor=#d5e8d4;" vertex="1" parent="1">
          <mxGeometry x="1063.31" y="403" width="120" height="30" as="geometry" />
        </mxCell>
        <mxCell id="62eYMFdiTSPehqSu2kbw-21" value="Gotham Treats&amp;nbsp;needs to ensure that the materials they order will be delivered in a timely manner, leaving them the right amount of time to go on with their operations." style="text;html=1;strokeColor=none;fillColor=none;align=left;verticalAlign=top;whiteSpace=wrap;rounded=0;" vertex="1" parent="1">
          <mxGeometry x="1205.31" y="185" width="474.69" height="30" as="geometry" />
        </mxCell>
        <mxCell id="62eYMFdiTSPehqSu2kbw-24" value="Gotham Treats&amp;nbsp;needs to have an established standard in procedure so the employees can produce a consistent day-to-day quality for their products." style="text;html=1;strokeColor=none;fillColor=none;align=left;verticalAlign=top;whiteSpace=wrap;rounded=0;" vertex="1" parent="1">
          <mxGeometry x="1205.31" y="300" width="474.69" height="50" as="geometry" />
        </mxCell>
        <mxCell id="62eYMFdiTSPehqSu2kbw-25" value="Customer Focus" style="rounded=0;whiteSpace=wrap;html=1;fontStyle=1;labelBackgroundColor=none;strokeColor=none;fillColor=#ffe6cc;" vertex="1" parent="1">
          <mxGeometry x="1063.62" y="480" width="120" height="30" as="geometry" />
        </mxCell>
        <mxCell id="62eYMFdiTSPehqSu2kbw-26" value="Collaboration" style="rounded=0;whiteSpace=wrap;html=1;fontStyle=1;labelBackgroundColor=none;strokeColor=none;fillColor=#ffe6cc;" vertex="1" parent="1">
          <mxGeometry x="1063.62" y="560" width="120" height="30" as="geometry" />
        </mxCell>
        <mxCell id="62eYMFdiTSPehqSu2kbw-27" value="Customer Satisfaction" style="rounded=0;whiteSpace=wrap;html=1;fontStyle=1;labelBackgroundColor=none;strokeColor=none;fillColor=#e1d5e7;" vertex="1" parent="1">
          <mxGeometry x="1063.62" y="613" width="120" height="37" as="geometry" />
        </mxCell>
        <mxCell id="62eYMFdiTSPehqSu2kbw-29" value="&lt;ul style=&quot;box-sizing: border-box; border-width: 0px; border-style: solid; border-color: currentcolor; --tw-border-spacing-x: 0; --tw-border-spacing-y: 0; --tw-translate-x: 0; --tw-translate-y: 0; --tw-rotate: 0; --tw-skew-x: 0; --tw-skew-y: 0; --tw-scale-x: 1; --tw-scale-y: 1; --tw-pan-x: ; --tw-pan-y: ; --tw-pinch-zoom: ; --tw-scroll-snap-strictness: proximity; --tw-ordinal: ; --tw-slashed-zero: ; --tw-numeric-figure: ; --tw-numeric-spacing: ; --tw-numeric-fraction: ; --tw-ring-inset: ; --tw-ring-offset-width: 0px; --tw-ring-offset-color: #fff; --tw-ring-color: rgb(0 125 178 / 0.5); --tw-ring-offset-shadow: 0 0 #0000; --tw-ring-shadow: 0 0 #0000; --tw-shadow: 0 0 #0000; --tw-shadow-colored: 0 0 #0000; --tw-blur: ; --tw-brightness: ; --tw-contrast: ; --tw-grayscale: ; --tw-hue-rotate: ; --tw-invert: ; --tw-saturate: ; --tw-sepia: ; --tw-drop-shadow: ; --tw-backdrop-blur: ; --tw-backdrop-brightness: ; --tw-backdrop-contrast: ; --tw-backdrop-grayscale: ; --tw-backdrop-hue-rotate: ; --tw-backdrop-invert: ; --tw-backdrop-opacity: ; --tw-backdrop-saturate: ; --tw-backdrop-sepia: ; list-style: none; margin: 0px; padding: 0px; color: rgb(27, 30, 37); text-align: start; background-color: rgb(255, 255, 255);&quot; aria-labelledby=&quot;alternatives-heading&quot;&gt;&lt;li style=&quot;box-sizing: border-box; border-width: 0px; border-style: solid; border-color: currentcolor; --tw-border-spacing-x: 0; --tw-border-spacing-y: 0; --tw-translate-x: 0; --tw-translate-y: 0; --tw-rotate: 0; --tw-skew-x: 0; --tw-skew-y: 0; --tw-scale-x: 1; --tw-scale-y: 1; --tw-pan-x: ; --tw-pan-y: ; --tw-pinch-zoom: ; --tw-scroll-snap-strictness: proximity; --tw-ordinal: ; --tw-slashed-zero: ; --tw-numeric-figure: ; --tw-numeric-spacing: ; --tw-numeric-fraction: ; --tw-ring-inset: ; --tw-ring-offset-width: 0px; --tw-ring-offset-color: #fff; --tw-ring-color: rgb(0 125 178 / 0.5); --tw-ring-offset-shadow: 0 0 #0000; --tw-ring-shadow: 0 0 #0000; --tw-shadow: 0 0 #0000; --tw-shadow-colored: 0 0 #0000; --tw-blur: ; --tw-brightness: ; --tw-contrast: ; --tw-grayscale: ; --tw-hue-rotate: ; --tw-invert: ; --tw-saturate: ; --tw-sepia: ; --tw-drop-shadow: ; --tw-backdrop-blur: ; --tw-backdrop-brightness: ; --tw-backdrop-contrast: ; --tw-backdrop-grayscale: ; --tw-backdrop-hue-rotate: ; --tw-backdrop-invert: ; --tw-backdrop-opacity: ; --tw-backdrop-saturate: ; --tw-backdrop-sepia: ; padding-left: 15px; padding-right: 40px; margin-left: -15px; margin-right: -40px; pointer-events: initial; cursor: initial; list-style-type: none;&quot; class=&quot;lmt__translations_as_text__item&quot;&gt;&lt;button style=&quot;border-width: initial; border-style: none; border-color: initial; --tw-border-spacing-x: 0; --tw-border-spacing-y: 0; --tw-translate-x: 0; --tw-translate-y: 0; --tw-rotate: 0; --tw-skew-x: 0; --tw-skew-y: 0; --tw-scale-x: 1; --tw-scale-y: 1; --tw-pan-x: ; --tw-pan-y: ; --tw-pinch-zoom: ; --tw-scroll-snap-strictness: proximity; --tw-ordinal: ; --tw-slashed-zero: ; --tw-numeric-figure: ; --tw-numeric-spacing: ; --tw-numeric-fraction: ; --tw-ring-inset: ; --tw-ring-offset-width: 0px; --tw-ring-offset-color: #fff; --tw-ring-color: rgb(0 125 178 / 0.5); --tw-ring-offset-shadow: 0 0 #0000; --tw-ring-shadow: 0 0 #0000; --tw-shadow: 0 0 #0000; --tw-shadow-colored: 0 0 #0000; --tw-blur: ; --tw-brightness: ; --tw-contrast: ; --tw-grayscale: ; --tw-hue-rotate: ; --tw-invert: ; --tw-saturate: ; --tw-sepia: ; --tw-drop-shadow: ; --tw-backdrop-blur: ; --tw-backdrop-brightness: ; --tw-backdrop-contrast: ; --tw-backdrop-grayscale: ; --tw-backdrop-hue-rotate: ; --tw-backdrop-invert: ; --tw-backdrop-opacity: ; --tw-backdrop-saturate: ; --tw-backdrop-sepia: ; line-height: inherit; color: rgb(0, 0, 0); margin: 0px; padding: 0px; appearance: button; background-color: rgba(0, 0, 0, 0); cursor: pointer; text-align: left; pointer-events: initial;&quot; aria-description=&quot;Cliquez pour utiliser cette solution&quot; lang=&quot;en-US&quot; class=&quot;lmt__translations_as_text__text_btn&quot;&gt;&lt;font style=&quot;font-size: 12px;&quot; face=&quot;Helvetica&quot;&gt;&lt;b&gt;System robustness&lt;/b&gt;&lt;/font&gt;&lt;/button&gt;&lt;/li&gt;&lt;/ul&gt;" style="rounded=0;whiteSpace=wrap;html=1;fontStyle=1;labelBackgroundColor=none;" vertex="1" parent="1">
          <mxGeometry x="1063.62" y="780" width="120" height="37" as="geometry" />
        </mxCell>
        <mxCell id="62eYMFdiTSPehqSu2kbw-31" value="Recruitment and Retention" style="rounded=0;whiteSpace=wrap;html=1;fontStyle=1;labelBackgroundColor=none;strokeColor=none;fillColor=#f5f5f5;fontColor=#333333;" vertex="1" parent="1">
          <mxGeometry x="1056.12" y="860" width="120" height="37" as="geometry" />
        </mxCell>
        <mxCell id="62eYMFdiTSPehqSu2kbw-32" value="Development and Satisfaction" style="rounded=0;whiteSpace=wrap;html=1;fontStyle=1;labelBackgroundColor=none;strokeColor=none;fillColor=#f5f5f5;fontColor=#333333;" vertex="1" parent="1">
          <mxGeometry x="1056.12" y="910" width="120" height="37" as="geometry" />
        </mxCell>
        <mxCell id="62eYMFdiTSPehqSu2kbw-33" value="Data Collection" style="rounded=0;whiteSpace=wrap;html=1;fontStyle=1;labelBackgroundColor=none;strokeColor=none;fillColor=#f5f5f5;fontColor=#333333;" vertex="1" parent="1">
          <mxGeometry x="1056.12" y="970" width="120" height="37" as="geometry" />
        </mxCell>
        <mxCell id="62eYMFdiTSPehqSu2kbw-34" value="Efficiency by Integration" style="rounded=0;whiteSpace=wrap;html=1;fontStyle=1;labelBackgroundColor=none;strokeColor=none;fillColor=#f5f5f5;fontColor=#333333;" vertex="1" parent="1">
          <mxGeometry x="1056.12" y="1020" width="120" height="37" as="geometry" />
        </mxCell>
        <mxCell id="62eYMFdiTSPehqSu2kbw-35" value="Reliable Quality" style="rounded=0;whiteSpace=wrap;html=1;fontStyle=1;labelBackgroundColor=none;strokeColor=none;fillColor=#f8cecc;" vertex="1" parent="1">
          <mxGeometry x="1056.12" y="1080" width="120" height="37" as="geometry" />
        </mxCell>
        <mxCell id="62eYMFdiTSPehqSu2kbw-36" value="Always in-stock" style="rounded=0;whiteSpace=wrap;html=1;fontStyle=1;labelBackgroundColor=none;strokeColor=none;fillColor=#f8cecc;" vertex="1" parent="1">
          <mxGeometry x="1056.12" y="1150" width="120" height="37" as="geometry" />
        </mxCell>
        <mxCell id="62eYMFdiTSPehqSu2kbw-37" value="Value to Achieve Analysis" style="text;html=1;strokeColor=none;fillColor=none;align=center;verticalAlign=middle;whiteSpace=wrap;rounded=0;fontStyle=5;labelBackgroundColor=none;" vertex="1" parent="1">
          <mxGeometry x="1120" y="60" width="280" height="30" as="geometry" />
        </mxCell>
        <mxCell id="62eYMFdiTSPehqSu2kbw-42" value="To produce excellent quality in their product output, GT will need &lt;br&gt;reliable, good quality machinery and tools at their disposal.&amp;nbsp;" style="text;html=1;align=left;verticalAlign=middle;resizable=0;points=[];autosize=1;strokeColor=none;fillColor=none;" vertex="1" parent="1">
          <mxGeometry x="1188.12" y="1078.5" width="359" height="41" as="geometry" />
        </mxCell>
        <mxCell id="62eYMFdiTSPehqSu2kbw-43" value="In order to deliver the right goods or services to customers, the marketing and sales teams for Gotham Treats must work together to understand their needs and preferences." style="text;html=1;strokeColor=none;fillColor=none;align=left;verticalAlign=top;whiteSpace=wrap;rounded=0;" vertex="1" parent="1">
          <mxGeometry x="1195.62" y="470" width="474.69" height="30" as="geometry" />
        </mxCell>
        <mxCell id="62eYMFdiTSPehqSu2kbw-45" value="When there is a problem in GTs tools and/or machinery, they will&lt;br&gt;need to have a replacement as soon as possible so they can get back to&lt;br&gt;their full work efficiency." style="text;html=1;align=left;verticalAlign=middle;resizable=0;points=[];autosize=1;strokeColor=none;fillColor=none;" vertex="1" parent="1">
          <mxGeometry x="1188.12" y="1141.5" width="402" height="55" as="geometry" />
        </mxCell>
        <mxCell id="62eYMFdiTSPehqSu2kbw-46" value="The Gotham Treats HR team must focus on recruiting and keeping top employees by fostering a great workplace culture, providing competitive pay and benefits, and giving competitive benefits." style="text;html=1;strokeColor=none;fillColor=none;align=left;verticalAlign=top;whiteSpace=wrap;rounded=0;" vertex="1" parent="1">
          <mxGeometry x="1198.12" y="850" width="380" height="30" as="geometry" />
        </mxCell>
        <mxCell id="62eYMFdiTSPehqSu2kbw-47" value="With training, coaching, and mentorship programs, Gotham Treats HR management seeks to enhance employees&#39; professional development and career advancement inside the company,&amp;nbsp; fostering employee engagement and satisfaction." style="text;html=1;strokeColor=none;fillColor=none;align=left;verticalAlign=top;whiteSpace=wrap;rounded=0;" vertex="1" parent="1">
          <mxGeometry x="1198.12" y="900" width="380" height="30" as="geometry" />
        </mxCell>
        <mxCell id="62eYMFdiTSPehqSu2kbw-48" value="Lead Generation" style="rounded=0;whiteSpace=wrap;html=1;fontStyle=1;labelBackgroundColor=none;strokeColor=none;fillColor=#ffe6cc;" vertex="1" parent="1">
          <mxGeometry x="1063.62" y="520" width="120" height="30" as="geometry" />
        </mxCell>
        <mxCell id="62eYMFdiTSPehqSu2kbw-49" value="Gotham Treatsmust have IT systems, processes and policies in place that are robust enough to support store operations reliably and consistently" style="text;html=1;strokeColor=none;fillColor=none;align=left;verticalAlign=top;whiteSpace=wrap;rounded=0;" vertex="1" parent="1">
          <mxGeometry x="1205.62" y="790" width="380" height="30" as="geometry" />
        </mxCell>
        <mxCell id="62eYMFdiTSPehqSu2kbw-50" value="By developing marketing strategies, producing content, and running advertisements to draw in potential clients, marketing teams generate leads. Sales teams strive to turn those leads into actual sales." style="text;html=1;strokeColor=none;fillColor=none;align=left;verticalAlign=top;whiteSpace=wrap;rounded=0;" vertex="1" parent="1">
          <mxGeometry x="1195.31" y="520" width="575" height="30" as="geometry" />
        </mxCell>
        <mxCell id="62eYMFdiTSPehqSu2kbw-51" value="To make sure that they are aligned in their approaches to generating revenue, both teams collaborate closely. Sales teams give feedback on the efficacy of marketing campaigns, while marketing teams supply sales teams with leads and customer insights." style="text;html=1;strokeColor=none;fillColor=none;align=left;verticalAlign=top;whiteSpace=wrap;rounded=0;" vertex="1" parent="1">
          <mxGeometry x="1195.31" y="560" width="685" height="30" as="geometry" />
        </mxCell>
        <mxCell id="62eYMFdiTSPehqSu2kbw-52" value="Gotham Treats can use technology to gather and analyze information on customer behavior, sales trends, and inventory levels. Making informed decisions about menu items, pricing, and promotions is possible using this data." style="text;html=1;strokeColor=none;fillColor=none;align=left;verticalAlign=top;whiteSpace=wrap;rounded=0;" vertex="1" parent="1">
          <mxGeometry x="1198.12" y="970" width="574.69" height="30" as="geometry" />
        </mxCell>
        <mxCell id="62eYMFdiTSPehqSu2kbw-53" value="Gotham Treats must have integration of technology to streamline their operations for more efficiency and increasing sales. For example, technology to simply their ppoint-of-sales and speed up the ordering process.&amp;nbsp;" style="text;html=1;strokeColor=none;fillColor=none;align=left;verticalAlign=top;whiteSpace=wrap;rounded=0;" vertex="1" parent="1">
          <mxGeometry x="1198.12" y="1023.5" width="594.69" height="30" as="geometry" />
        </mxCell>
        <mxCell id="eEkp07PyPu_zzank9lyy-1" value="Gotham Treats&amp;nbsp;needs to bake their cookies and make their ice cream on-time so every time a customer orders they are always ready." style="text;html=1;strokeColor=none;fillColor=none;align=left;verticalAlign=top;whiteSpace=wrap;rounded=0;" vertex="1" parent="1">
          <mxGeometry x="1205.31" y="350" width="474.69" height="30" as="geometry" />
        </mxCell>
        <mxCell id="MQuM7X7XAcD4h49lmfO_-1" value="Gotham strives to consistently exceed customer expectations by providing exceptional products and services, resulting in a positive and delightful experience that leaves customers highly satisfied." style="text;html=1;strokeColor=none;fillColor=none;align=left;verticalAlign=top;whiteSpace=wrap;rounded=0;" vertex="1" parent="1">
          <mxGeometry x="1195.62" y="616.5" width="575" height="30" as="geometry" />
        </mxCell>
        <mxCell id="MQuM7X7XAcD4h49lmfO_-2" value="&lt;div&gt;Gotham Treats needs to optimise processes, resources, and workflows to ensure efficient production, timely service, and seamless customer experiences.&lt;/div&gt;&lt;div&gt;&lt;br&gt;&lt;/div&gt;" style="text;html=1;strokeColor=none;fillColor=none;align=left;verticalAlign=top;whiteSpace=wrap;rounded=0;" vertex="1" parent="1">
          <mxGeometry x="1205.62" y="393" width="474.69" height="30" as="geometry" />
        </mxCell>
        <mxCell id="P1Se83yMj8uxQ6vAkDPc-1" value="Outbound Logistics" style="rounded=0;whiteSpace=wrap;html=1;fontStyle=1;labelBackgroundColor=none;fillColor=#f8cecc;strokeColor=#b85450;" vertex="1" parent="1">
          <mxGeometry x="250" y="230" width="140" height="30" as="geometry" />
        </mxCell>
        <mxCell id="P1Se83yMj8uxQ6vAkDPc-2" value="Gotham Treats conducts operations of delivery from goods produced from the kitchen to the outlet including semi-finished goods and baked goods." style="rounded=0;whiteSpace=wrap;html=1;labelBackgroundColor=none;" vertex="1" parent="1">
          <mxGeometry x="250" y="260" width="140" height="130" as="geometry" />
        </mxCell>
      </root>
    </mxGraphModel>
  </diagram>
  <diagram name="COLD MOO [ARCHIVE[" id="q9dJ2lCPNRYxSW8ad-Ov">
    <mxGraphModel grid="1" page="1" gridSize="10" guides="1" tooltips="1" connect="1" arrows="1" fold="1" pageScale="1" pageWidth="850" pageHeight="1100" math="0" shadow="0">
      <root>
        <mxCell id="0" />
        <mxCell id="1" parent="0" />
        <mxCell id="3KZJdS5aM5reCcdeb898-2" value="Inbound Logistics" style="rounded=0;whiteSpace=wrap;html=1;fontStyle=1;labelBackgroundColor=none;fillColor=#dae8fc;strokeColor=default;" vertex="1" parent="1">
          <mxGeometry x="100" y="230" width="120" height="30" as="geometry" />
        </mxCell>
        <mxCell id="3KZJdS5aM5reCcdeb898-4" value="Operations" style="rounded=0;whiteSpace=wrap;html=1;fontStyle=1;labelBackgroundColor=none;fillColor=#d5e8d4;strokeColor=default;" vertex="1" parent="1">
          <mxGeometry x="220" y="230" width="110" height="30" as="geometry" />
        </mxCell>
        <mxCell id="3KZJdS5aM5reCcdeb898-5" value="Outbound Logistics" style="rounded=0;whiteSpace=wrap;html=1;fontStyle=1;labelBackgroundColor=none;fillColor=#fff2cc;strokeColor=default;" vertex="1" parent="1">
          <mxGeometry x="330" y="230" width="120" height="30" as="geometry" />
        </mxCell>
        <mxCell id="3KZJdS5aM5reCcdeb898-6" value="Marketing &amp;amp; Sales" style="rounded=0;whiteSpace=wrap;html=1;fontStyle=1;labelBackgroundColor=none;fillColor=#ffe6cc;strokeColor=default;" vertex="1" parent="1">
          <mxGeometry x="450" y="230" width="110" height="30" as="geometry" />
        </mxCell>
        <mxCell id="3KZJdS5aM5reCcdeb898-7" value="Service" style="rounded=0;whiteSpace=wrap;html=1;fontStyle=1;labelBackgroundColor=none;fillColor=#e1d5e7;strokeColor=default;" vertex="1" parent="1">
          <mxGeometry x="560" y="230" width="110" height="30" as="geometry" />
        </mxCell>
        <mxCell id="3KZJdS5aM5reCcdeb898-8" value="&lt;b&gt;Procurement &lt;/b&gt;focuses on purchasing the raw materials, machinery and inventory" style="rounded=0;whiteSpace=wrap;html=1;labelBackgroundColor=none;" vertex="1" parent="1">
          <mxGeometry x="100" y="200" width="570" height="30" as="geometry" />
        </mxCell>
        <mxCell id="3KZJdS5aM5reCcdeb898-9" value="&lt;b&gt;Technology Department &lt;/b&gt;focuses on management information systems" style="rounded=0;whiteSpace=wrap;html=1;labelBackgroundColor=none;" vertex="1" parent="1">
          <mxGeometry x="100" y="170" width="570" height="30" as="geometry" />
        </mxCell>
        <mxCell id="3KZJdS5aM5reCcdeb898-10" value="&lt;b&gt;Human Resource Management&lt;/b&gt;&amp;nbsp;focuses on recruiting, managing and motivating employees&amp;nbsp;" style="rounded=0;whiteSpace=wrap;html=1;labelBackgroundColor=none;" vertex="1" parent="1">
          <mxGeometry x="100" y="140" width="570" height="30" as="geometry" />
        </mxCell>
        <mxCell id="3KZJdS5aM5reCcdeb898-11" value="&lt;b&gt;Firm Infrastructure &lt;/b&gt;focuses on management, finance and legal" style="rounded=0;whiteSpace=wrap;html=1;labelBackgroundColor=none;" vertex="1" parent="1">
          <mxGeometry x="100" y="110" width="570" height="30" as="geometry" />
        </mxCell>
        <mxCell id="3KZJdS5aM5reCcdeb898-12" value="Margin" style="triangle;whiteSpace=wrap;html=1;labelBackgroundColor=none;" vertex="1" parent="1">
          <mxGeometry x="670" y="110" width="50" height="320" as="geometry" />
        </mxCell>
        <mxCell id="3KZJdS5aM5reCcdeb898-13" value="Porter&#39;s Value Chain Analysis" style="text;html=1;strokeColor=none;fillColor=none;align=center;verticalAlign=middle;whiteSpace=wrap;rounded=0;fontStyle=5;labelBackgroundColor=none;" vertex="1" parent="1">
          <mxGeometry x="260" y="70" width="280" height="30" as="geometry" />
        </mxCell>
        <mxCell id="TmPoub4pq6kFbiT8lHOf-2" value="Cold Moo has its suppliers for obtaining raw material and handles inventory control." style="rounded=0;whiteSpace=wrap;html=1;labelBackgroundColor=none;" vertex="1" parent="1">
          <mxGeometry x="100" y="260" width="120" height="170" as="geometry" />
        </mxCell>
        <mxCell id="TmPoub4pq6kFbiT8lHOf-3" value="Cold Moo uses those raw materials to convert and create end products into production" style="rounded=0;whiteSpace=wrap;html=1;labelBackgroundColor=none;" vertex="1" parent="1">
          <mxGeometry x="220" y="260" width="110" height="170" as="geometry" />
        </mxCell>
        <mxCell id="TmPoub4pq6kFbiT8lHOf-4" value="Products are distributed to customers through order processing (point of sale - onsite) and online ordering (Gojek)" style="rounded=0;whiteSpace=wrap;html=1;labelBackgroundColor=none;" vertex="1" parent="1">
          <mxGeometry x="330" y="260" width="120" height="170" as="geometry" />
        </mxCell>
        <mxCell id="TmPoub4pq6kFbiT8lHOf-5" value="Marketing for Cold Moo is through word of mouth and social media (Instagram)" style="rounded=0;whiteSpace=wrap;html=1;labelBackgroundColor=none;" vertex="1" parent="1">
          <mxGeometry x="450" y="260" width="110" height="170" as="geometry" />
        </mxCell>
        <mxCell id="TmPoub4pq6kFbiT8lHOf-6" value="Cold Moo focuses on customer experience and opens feedback and comments from customers." style="rounded=0;whiteSpace=wrap;html=1;labelBackgroundColor=none;" vertex="1" parent="1">
          <mxGeometry x="560" y="260" width="110" height="170" as="geometry" />
        </mxCell>
        <mxCell id="TmPoub4pq6kFbiT8lHOf-7" value="Primary Activities" style="text;html=1;strokeColor=none;fillColor=none;align=center;verticalAlign=middle;whiteSpace=wrap;rounded=0;fontStyle=1;labelBackgroundColor=none;" vertex="1" parent="1">
          <mxGeometry x="897.81" y="100" width="105" height="30" as="geometry" />
        </mxCell>
        <mxCell id="TmPoub4pq6kFbiT8lHOf-9" value="Supporting Activities" style="text;html=1;strokeColor=none;fillColor=none;align=center;verticalAlign=middle;whiteSpace=wrap;rounded=0;fontStyle=1;rotation=-90;labelBackgroundColor=none;" vertex="1" parent="1">
          <mxGeometry y="170" width="160" height="30" as="geometry" />
        </mxCell>
        <mxCell id="TmPoub4pq6kFbiT8lHOf-29" value="Cold Moo needs consistent quality control for raw materials inbound logistics to make sure their sold product stays consistent in quality." style="text;html=1;strokeColor=none;fillColor=none;align=left;verticalAlign=top;whiteSpace=wrap;rounded=0;" vertex="1" parent="1">
          <mxGeometry x="1205.31" y="140" width="380" height="30" as="geometry" />
        </mxCell>
        <mxCell id="tnAGH-tjkvaw55Z-TS3K-1" value="Inbound Logistics" style="rounded=0;whiteSpace=wrap;html=1;fontStyle=1;labelBackgroundColor=none;" vertex="1" parent="1">
          <mxGeometry x="890.31" y="140" width="120" height="30" as="geometry" />
        </mxCell>
        <mxCell id="nUXCpXMiE_SFiA6k1DcL-1" value="Outbound Logistics" style="rounded=0;whiteSpace=wrap;html=1;fontStyle=1;labelBackgroundColor=none;" vertex="1" parent="1">
          <mxGeometry x="890.31" y="460" width="120" height="30" as="geometry" />
        </mxCell>
        <mxCell id="tnAGH-tjkvaw55Z-TS3K-2" value="Operations" style="rounded=0;whiteSpace=wrap;html=1;fontStyle=1;labelBackgroundColor=none;" vertex="1" parent="1">
          <mxGeometry x="892.81" y="310" width="115" height="30" as="geometry" />
        </mxCell>
        <mxCell id="tnAGH-tjkvaw55Z-TS3K-3" value="Service" style="rounded=0;whiteSpace=wrap;html=1;fontStyle=1;labelBackgroundColor=none;" vertex="1" parent="1">
          <mxGeometry x="890.31" y="683" width="125" height="30" as="geometry" />
        </mxCell>
        <mxCell id="nUXCpXMiE_SFiA6k1DcL-2" value="Marketing &amp;amp; Sales" style="rounded=0;whiteSpace=wrap;html=1;fontStyle=1;labelBackgroundColor=none;" vertex="1" parent="1">
          <mxGeometry x="890.31" y="570" width="125" height="30" as="geometry" />
        </mxCell>
        <mxCell id="tnAGH-tjkvaw55Z-TS3K-5" value="Supporting Activities" style="text;html=1;strokeColor=none;fillColor=none;align=center;verticalAlign=middle;whiteSpace=wrap;rounded=0;fontStyle=1;labelBackgroundColor=none;" vertex="1" parent="1">
          <mxGeometry x="893.4399999999999" y="820" width="125" height="30" as="geometry" />
        </mxCell>
        <mxCell id="nUXCpXMiE_SFiA6k1DcL-4" value="HRM" style="rounded=0;whiteSpace=wrap;html=1;fontStyle=1;labelBackgroundColor=none;" vertex="1" parent="1">
          <mxGeometry x="892.81" y="990" width="135.31" height="30" as="geometry" />
        </mxCell>
        <mxCell id="nUXCpXMiE_SFiA6k1DcL-5" value="Technology" style="rounded=0;whiteSpace=wrap;html=1;fontStyle=1;labelBackgroundColor=none;" vertex="1" parent="1">
          <mxGeometry x="890.31" y="1100" width="135" height="30" as="geometry" />
        </mxCell>
        <mxCell id="nUXCpXMiE_SFiA6k1DcL-3" value="Firm Infrastructure" style="rounded=0;whiteSpace=wrap;html=1;fontStyle=1;labelBackgroundColor=none;" vertex="1" parent="1">
          <mxGeometry x="890" y="853.5" width="131.87" height="30" as="geometry" />
        </mxCell>
        <mxCell id="nUXCpXMiE_SFiA6k1DcL-8" value="Procurement" style="rounded=0;whiteSpace=wrap;html=1;fontStyle=1;labelBackgroundColor=none;" vertex="1" parent="1">
          <mxGeometry x="890" y="1210" width="135.31" height="30" as="geometry" />
        </mxCell>
        <mxCell id="tnAGH-tjkvaw55Z-TS3K-6" value="Values to Achieve" style="text;html=1;strokeColor=none;fillColor=none;align=center;verticalAlign=middle;whiteSpace=wrap;rounded=0;fontStyle=1;labelBackgroundColor=none;" vertex="1" parent="1">
          <mxGeometry x="1285.31" y="100" width="105" height="30" as="geometry" />
        </mxCell>
        <mxCell id="nUXCpXMiE_SFiA6k1DcL-9" value="Consistent Quality" style="rounded=0;whiteSpace=wrap;html=1;fontStyle=1;labelBackgroundColor=none;strokeColor=none;fillColor=#dae8fc;" vertex="1" parent="1">
          <mxGeometry x="1063.31" y="147" width="120" height="30" as="geometry" />
        </mxCell>
        <mxCell id="nUXCpXMiE_SFiA6k1DcL-10" value="On-time" style="rounded=0;whiteSpace=wrap;html=1;fontStyle=1;labelBackgroundColor=none;strokeColor=none;fillColor=#dae8fc;" vertex="1" parent="1">
          <mxGeometry x="1063.31" y="190" width="120" height="30" as="geometry" />
        </mxCell>
        <mxCell id="nUXCpXMiE_SFiA6k1DcL-11" value="Cost Effective" style="rounded=0;whiteSpace=wrap;html=1;fontStyle=1;labelBackgroundColor=none;strokeColor=none;fillColor=#dae8fc;" vertex="1" parent="1">
          <mxGeometry x="1063.31" y="230" width="120" height="30" as="geometry" />
        </mxCell>
        <mxCell id="tnAGH-tjkvaw55Z-TS3K-8" value="Cold Moo wants to purchase their raw materials at the best price as possible to maximize their profit.&amp;nbsp;" style="text;html=1;strokeColor=none;fillColor=none;align=left;verticalAlign=top;whiteSpace=wrap;rounded=0;" vertex="1" parent="1">
          <mxGeometry x="1205.31" y="230" width="380" height="30" as="geometry" />
        </mxCell>
        <mxCell id="nUXCpXMiE_SFiA6k1DcL-12" value="Established Standard" style="rounded=0;whiteSpace=wrap;html=1;fontStyle=1;labelBackgroundColor=none;strokeColor=none;fillColor=#d5e8d4;" vertex="1" parent="1">
          <mxGeometry x="1063.31" y="310" width="120" height="30" as="geometry" />
        </mxCell>
        <mxCell id="nUXCpXMiE_SFiA6k1DcL-13" value="On-time" style="rounded=0;whiteSpace=wrap;html=1;fontStyle=1;labelBackgroundColor=none;strokeColor=none;fillColor=#d5e8d4;" vertex="1" parent="1">
          <mxGeometry x="1063.31" y="363" width="120" height="30" as="geometry" />
        </mxCell>
        <mxCell id="nUXCpXMiE_SFiA6k1DcL-14" value="Effective" style="rounded=0;whiteSpace=wrap;html=1;fontStyle=1;labelBackgroundColor=none;strokeColor=none;fillColor=#d5e8d4;" vertex="1" parent="1">
          <mxGeometry x="1063.31" y="403" width="120" height="30" as="geometry" />
        </mxCell>
        <mxCell id="tnAGH-tjkvaw55Z-TS3K-9" value="Cold Moo needs to bake their cookies and make their ice cream on-time so every time a customer orders they are always ready." style="text;html=1;strokeColor=none;fillColor=none;align=left;verticalAlign=top;whiteSpace=wrap;rounded=0;" vertex="1" parent="1">
          <mxGeometry x="1205.31" y="185" width="380" height="30" as="geometry" />
        </mxCell>
        <mxCell id="nUXCpXMiE_SFiA6k1DcL-15" value="Consistent Quality" style="rounded=0;whiteSpace=wrap;html=1;fontStyle=1;labelBackgroundColor=none;strokeColor=none;fillColor=#fff2cc;" vertex="1" parent="1">
          <mxGeometry x="1063.31" y="457" width="120" height="30" as="geometry" />
        </mxCell>
        <mxCell id="nUXCpXMiE_SFiA6k1DcL-16" value="Time-sensitive" style="rounded=0;whiteSpace=wrap;html=1;fontStyle=1;labelBackgroundColor=none;strokeColor=none;fillColor=#fff2cc;" vertex="1" parent="1">
          <mxGeometry x="1063.31" y="500" width="120" height="30" as="geometry" />
        </mxCell>
        <mxCell id="tnAGH-tjkvaw55Z-TS3K-10" value="Cold Moo needs to have an established standard in procedure so the employees can produce a consistent day-to-day quality for their products." style="text;html=1;strokeColor=none;fillColor=none;align=left;verticalAlign=top;whiteSpace=wrap;rounded=0;" vertex="1" parent="1">
          <mxGeometry x="1205.31" y="300" width="380" height="50" as="geometry" />
        </mxCell>
        <mxCell id="nUXCpXMiE_SFiA6k1DcL-18" value="Customer Focus" style="rounded=0;whiteSpace=wrap;html=1;fontStyle=1;labelBackgroundColor=none;strokeColor=none;fillColor=#ffe6cc;" vertex="1" parent="1">
          <mxGeometry x="1063.31" y="550" width="120" height="30" as="geometry" />
        </mxCell>
        <mxCell id="nUXCpXMiE_SFiA6k1DcL-19" value="Collaboration" style="rounded=0;whiteSpace=wrap;html=1;fontStyle=1;labelBackgroundColor=none;strokeColor=none;fillColor=#ffe6cc;" vertex="1" parent="1">
          <mxGeometry x="1063.31" y="630" width="120" height="30" as="geometry" />
        </mxCell>
        <mxCell id="nUXCpXMiE_SFiA6k1DcL-20" value="Customer Satisfaction" style="rounded=0;whiteSpace=wrap;html=1;fontStyle=1;labelBackgroundColor=none;strokeColor=none;fillColor=#e1d5e7;" vertex="1" parent="1">
          <mxGeometry x="1063.31" y="683" width="120" height="37" as="geometry" />
        </mxCell>
        <mxCell id="nUXCpXMiE_SFiA6k1DcL-21" value="Welcoming suggestions // edit wording" style="rounded=0;whiteSpace=wrap;html=1;fontStyle=1;labelBackgroundColor=none;strokeColor=none;fillColor=#e1d5e7;" vertex="1" parent="1">
          <mxGeometry x="1063.31" y="726" width="120" height="54" as="geometry" />
        </mxCell>
        <mxCell id="nUXCpXMiE_SFiA6k1DcL-22" value="&lt;ul style=&quot;box-sizing: border-box; border-width: 0px; border-style: solid; border-color: currentcolor; --tw-border-spacing-x: 0; --tw-border-spacing-y: 0; --tw-translate-x: 0; --tw-translate-y: 0; --tw-rotate: 0; --tw-skew-x: 0; --tw-skew-y: 0; --tw-scale-x: 1; --tw-scale-y: 1; --tw-pan-x: ; --tw-pan-y: ; --tw-pinch-zoom: ; --tw-scroll-snap-strictness: proximity; --tw-ordinal: ; --tw-slashed-zero: ; --tw-numeric-figure: ; --tw-numeric-spacing: ; --tw-numeric-fraction: ; --tw-ring-inset: ; --tw-ring-offset-width: 0px; --tw-ring-offset-color: #fff; --tw-ring-color: rgb(0 125 178 / 0.5); --tw-ring-offset-shadow: 0 0 #0000; --tw-ring-shadow: 0 0 #0000; --tw-shadow: 0 0 #0000; --tw-shadow-colored: 0 0 #0000; --tw-blur: ; --tw-brightness: ; --tw-contrast: ; --tw-grayscale: ; --tw-hue-rotate: ; --tw-invert: ; --tw-saturate: ; --tw-sepia: ; --tw-drop-shadow: ; --tw-backdrop-blur: ; --tw-backdrop-brightness: ; --tw-backdrop-contrast: ; --tw-backdrop-grayscale: ; --tw-backdrop-hue-rotate: ; --tw-backdrop-invert: ; --tw-backdrop-opacity: ; --tw-backdrop-saturate: ; --tw-backdrop-sepia: ; list-style: none; margin: 0px; padding: 0px; color: rgb(27, 30, 37); text-align: start; background-color: rgb(255, 255, 255);&quot; aria-labelledby=&quot;alternatives-heading&quot;&gt;&lt;li style=&quot;box-sizing: border-box; border-width: 0px; border-style: solid; border-color: currentcolor; --tw-border-spacing-x: 0; --tw-border-spacing-y: 0; --tw-translate-x: 0; --tw-translate-y: 0; --tw-rotate: 0; --tw-skew-x: 0; --tw-skew-y: 0; --tw-scale-x: 1; --tw-scale-y: 1; --tw-pan-x: ; --tw-pan-y: ; --tw-pinch-zoom: ; --tw-scroll-snap-strictness: proximity; --tw-ordinal: ; --tw-slashed-zero: ; --tw-numeric-figure: ; --tw-numeric-spacing: ; --tw-numeric-fraction: ; --tw-ring-inset: ; --tw-ring-offset-width: 0px; --tw-ring-offset-color: #fff; --tw-ring-color: rgb(0 125 178 / 0.5); --tw-ring-offset-shadow: 0 0 #0000; --tw-ring-shadow: 0 0 #0000; --tw-shadow: 0 0 #0000; --tw-shadow-colored: 0 0 #0000; --tw-blur: ; --tw-brightness: ; --tw-contrast: ; --tw-grayscale: ; --tw-hue-rotate: ; --tw-invert: ; --tw-saturate: ; --tw-sepia: ; --tw-drop-shadow: ; --tw-backdrop-blur: ; --tw-backdrop-brightness: ; --tw-backdrop-contrast: ; --tw-backdrop-grayscale: ; --tw-backdrop-hue-rotate: ; --tw-backdrop-invert: ; --tw-backdrop-opacity: ; --tw-backdrop-saturate: ; --tw-backdrop-sepia: ; padding-left: 15px; padding-right: 40px; margin-left: -15px; margin-right: -40px; pointer-events: initial; cursor: initial; list-style-type: none;&quot; class=&quot;lmt__translations_as_text__item&quot;&gt;&lt;button style=&quot;border-width: initial; border-style: none; border-color: initial; --tw-border-spacing-x: 0; --tw-border-spacing-y: 0; --tw-translate-x: 0; --tw-translate-y: 0; --tw-rotate: 0; --tw-skew-x: 0; --tw-skew-y: 0; --tw-scale-x: 1; --tw-scale-y: 1; --tw-pan-x: ; --tw-pan-y: ; --tw-pinch-zoom: ; --tw-scroll-snap-strictness: proximity; --tw-ordinal: ; --tw-slashed-zero: ; --tw-numeric-figure: ; --tw-numeric-spacing: ; --tw-numeric-fraction: ; --tw-ring-inset: ; --tw-ring-offset-width: 0px; --tw-ring-offset-color: #fff; --tw-ring-color: rgb(0 125 178 / 0.5); --tw-ring-offset-shadow: 0 0 #0000; --tw-ring-shadow: 0 0 #0000; --tw-shadow: 0 0 #0000; --tw-shadow-colored: 0 0 #0000; --tw-blur: ; --tw-brightness: ; --tw-contrast: ; --tw-grayscale: ; --tw-hue-rotate: ; --tw-invert: ; --tw-saturate: ; --tw-sepia: ; --tw-drop-shadow: ; --tw-backdrop-blur: ; --tw-backdrop-brightness: ; --tw-backdrop-contrast: ; --tw-backdrop-grayscale: ; --tw-backdrop-hue-rotate: ; --tw-backdrop-invert: ; --tw-backdrop-opacity: ; --tw-backdrop-saturate: ; --tw-backdrop-sepia: ; line-height: inherit; color: rgb(0, 0, 0); margin: 0px; padding: 0px; appearance: button; background-color: rgba(0, 0, 0, 0); cursor: pointer; text-align: left; pointer-events: initial;&quot; aria-description=&quot;Cliquez pour utiliser cette solution&quot; lang=&quot;en-US&quot; class=&quot;lmt__translations_as_text__text_btn&quot;&gt;&lt;font style=&quot;font-size: 12px;&quot; face=&quot;Helvetica&quot;&gt;&lt;b&gt;System robustness&lt;/b&gt;&lt;/font&gt;&lt;/button&gt;&lt;/li&gt;&lt;/ul&gt;" style="rounded=0;whiteSpace=wrap;html=1;fontStyle=1;labelBackgroundColor=none;" vertex="1" parent="1">
          <mxGeometry x="1063.31" y="850" width="120" height="37" as="geometry" />
        </mxCell>
        <mxCell id="KJ2cbV-uPyNlg4_4prI--1" value="&lt;ul style=&quot;box-sizing: border-box; border-width: 0px; border-style: solid; border-color: currentcolor; --tw-border-spacing-x: 0; --tw-border-spacing-y: 0; --tw-translate-x: 0; --tw-translate-y: 0; --tw-rotate: 0; --tw-skew-x: 0; --tw-skew-y: 0; --tw-scale-x: 1; --tw-scale-y: 1; --tw-pan-x: ; --tw-pan-y: ; --tw-pinch-zoom: ; --tw-scroll-snap-strictness: proximity; --tw-ordinal: ; --tw-slashed-zero: ; --tw-numeric-figure: ; --tw-numeric-spacing: ; --tw-numeric-fraction: ; --tw-ring-inset: ; --tw-ring-offset-width: 0px; --tw-ring-offset-color: #fff; --tw-ring-color: rgb(0 125 178 / 0.5); --tw-ring-offset-shadow: 0 0 #0000; --tw-ring-shadow: 0 0 #0000; --tw-shadow: 0 0 #0000; --tw-shadow-colored: 0 0 #0000; --tw-blur: ; --tw-brightness: ; --tw-contrast: ; --tw-grayscale: ; --tw-hue-rotate: ; --tw-invert: ; --tw-saturate: ; --tw-sepia: ; --tw-drop-shadow: ; --tw-backdrop-blur: ; --tw-backdrop-brightness: ; --tw-backdrop-contrast: ; --tw-backdrop-grayscale: ; --tw-backdrop-hue-rotate: ; --tw-backdrop-invert: ; --tw-backdrop-opacity: ; --tw-backdrop-saturate: ; --tw-backdrop-sepia: ; list-style: none; margin: 0px; padding: 0px; color: rgb(27, 30, 37); text-align: start; background-color: rgb(255, 255, 255);&quot; aria-labelledby=&quot;alternatives-heading&quot;&gt;&lt;li style=&quot;box-sizing: border-box; border-width: 0px; border-style: solid; border-color: currentcolor; --tw-border-spacing-x: 0; --tw-border-spacing-y: 0; --tw-translate-x: 0; --tw-translate-y: 0; --tw-rotate: 0; --tw-skew-x: 0; --tw-skew-y: 0; --tw-scale-x: 1; --tw-scale-y: 1; --tw-pan-x: ; --tw-pan-y: ; --tw-pinch-zoom: ; --tw-scroll-snap-strictness: proximity; --tw-ordinal: ; --tw-slashed-zero: ; --tw-numeric-figure: ; --tw-numeric-spacing: ; --tw-numeric-fraction: ; --tw-ring-inset: ; --tw-ring-offset-width: 0px; --tw-ring-offset-color: #fff; --tw-ring-color: rgb(0 125 178 / 0.5); --tw-ring-offset-shadow: 0 0 #0000; --tw-ring-shadow: 0 0 #0000; --tw-shadow: 0 0 #0000; --tw-shadow-colored: 0 0 #0000; --tw-blur: ; --tw-brightness: ; --tw-contrast: ; --tw-grayscale: ; --tw-hue-rotate: ; --tw-invert: ; --tw-saturate: ; --tw-sepia: ; --tw-drop-shadow: ; --tw-backdrop-blur: ; --tw-backdrop-brightness: ; --tw-backdrop-contrast: ; --tw-backdrop-grayscale: ; --tw-backdrop-hue-rotate: ; --tw-backdrop-invert: ; --tw-backdrop-opacity: ; --tw-backdrop-saturate: ; --tw-backdrop-sepia: ; padding-left: 15px; padding-right: 40px; margin-left: -15px; margin-right: -40px; pointer-events: initial; cursor: initial; list-style-type: none;&quot; class=&quot;lmt__translations_as_text__item&quot;&gt;&lt;button style=&quot;border-width: initial; border-style: none; border-color: initial; --tw-border-spacing-x: 0; --tw-border-spacing-y: 0; --tw-translate-x: 0; --tw-translate-y: 0; --tw-rotate: 0; --tw-skew-x: 0; --tw-skew-y: 0; --tw-scale-x: 1; --tw-scale-y: 1; --tw-pan-x: ; --tw-pan-y: ; --tw-pinch-zoom: ; --tw-scroll-snap-strictness: proximity; --tw-ordinal: ; --tw-slashed-zero: ; --tw-numeric-figure: ; --tw-numeric-spacing: ; --tw-numeric-fraction: ; --tw-ring-inset: ; --tw-ring-offset-width: 0px; --tw-ring-offset-color: #fff; --tw-ring-color: rgb(0 125 178 / 0.5); --tw-ring-offset-shadow: 0 0 #0000; --tw-ring-shadow: 0 0 #0000; --tw-shadow: 0 0 #0000; --tw-shadow-colored: 0 0 #0000; --tw-blur: ; --tw-brightness: ; --tw-contrast: ; --tw-grayscale: ; --tw-hue-rotate: ; --tw-invert: ; --tw-saturate: ; --tw-sepia: ; --tw-drop-shadow: ; --tw-backdrop-blur: ; --tw-backdrop-brightness: ; --tw-backdrop-contrast: ; --tw-backdrop-grayscale: ; --tw-backdrop-hue-rotate: ; --tw-backdrop-invert: ; --tw-backdrop-opacity: ; --tw-backdrop-saturate: ; --tw-backdrop-sepia: ; line-height: inherit; color: rgb(0, 0, 0); margin: 0px; padding: 0px; appearance: button; background-color: rgba(0, 0, 0, 0); cursor: pointer; text-align: left; pointer-events: initial;&quot; aria-description=&quot;Cliquez pour utiliser cette solution&quot; lang=&quot;en-US&quot; class=&quot;lmt__translations_as_text__text_btn&quot;&gt;&lt;font style=&quot;font-size: 12px;&quot; face=&quot;Helvetica&quot;&gt;&lt;b&gt;Outstanding customer service&lt;/b&gt;&lt;/font&gt;&lt;/button&gt;&lt;/li&gt;&lt;/ul&gt;" style="rounded=0;whiteSpace=wrap;html=1;fontStyle=1;labelBackgroundColor=none;strokeColor=none;fillColor=#f5f5f5;fontColor=#333333;" vertex="1" parent="1">
          <mxGeometry x="1063.31" y="900" width="120" height="37" as="geometry" />
        </mxCell>
        <mxCell id="KJ2cbV-uPyNlg4_4prI--2" value="Recruitment and Retention" style="rounded=0;whiteSpace=wrap;html=1;fontStyle=1;labelBackgroundColor=none;strokeColor=none;fillColor=#f5f5f5;fontColor=#333333;" vertex="1" parent="1">
          <mxGeometry x="1063.31" y="990" width="120" height="37" as="geometry" />
        </mxCell>
        <mxCell id="KJ2cbV-uPyNlg4_4prI--3" value="Development and Satisfaction" style="rounded=0;whiteSpace=wrap;html=1;fontStyle=1;labelBackgroundColor=none;strokeColor=none;fillColor=#f5f5f5;fontColor=#333333;" vertex="1" parent="1">
          <mxGeometry x="1063.31" y="1040" width="120" height="37" as="geometry" />
        </mxCell>
        <mxCell id="KJ2cbV-uPyNlg4_4prI--4" value="Data Collection" style="rounded=0;whiteSpace=wrap;html=1;fontStyle=1;labelBackgroundColor=none;strokeColor=none;fillColor=#f5f5f5;fontColor=#333333;" vertex="1" parent="1">
          <mxGeometry x="1063.31" y="1100" width="120" height="37" as="geometry" />
        </mxCell>
        <mxCell id="KJ2cbV-uPyNlg4_4prI--5" value="Efficiency by Integration" style="rounded=0;whiteSpace=wrap;html=1;fontStyle=1;labelBackgroundColor=none;strokeColor=none;fillColor=#f5f5f5;fontColor=#333333;" vertex="1" parent="1">
          <mxGeometry x="1063.31" y="1150" width="120" height="37" as="geometry" />
        </mxCell>
        <mxCell id="KJ2cbV-uPyNlg4_4prI--6" value="Reliable Quality" style="rounded=0;whiteSpace=wrap;html=1;fontStyle=1;labelBackgroundColor=none;strokeColor=none;fillColor=#f8cecc;" vertex="1" parent="1">
          <mxGeometry x="1063.31" y="1210" width="120" height="37" as="geometry" />
        </mxCell>
        <mxCell id="KJ2cbV-uPyNlg4_4prI--7" value="Always in-stock" style="rounded=0;whiteSpace=wrap;html=1;fontStyle=1;labelBackgroundColor=none;strokeColor=none;fillColor=#f8cecc;" vertex="1" parent="1">
          <mxGeometry x="1063.31" y="1280" width="120" height="37" as="geometry" />
        </mxCell>
        <mxCell id="UpvC00llTbCv9nwqcYSf-1" value="Primary Activities" style="text;html=1;strokeColor=none;fillColor=none;align=center;verticalAlign=middle;whiteSpace=wrap;rounded=0;fontStyle=1;labelBackgroundColor=none;" vertex="1" parent="1">
          <mxGeometry x="100" y="440" width="570" height="30" as="geometry" />
        </mxCell>
        <mxCell id="UpvC00llTbCv9nwqcYSf-2" value="Value to Achieve Analysis" style="text;html=1;strokeColor=none;fillColor=none;align=center;verticalAlign=middle;whiteSpace=wrap;rounded=0;fontStyle=5;labelBackgroundColor=none;" vertex="1" parent="1">
          <mxGeometry x="1120" y="60" width="280" height="30" as="geometry" />
        </mxCell>
        <mxCell id="UpvC00llTbCv9nwqcYSf-3" value="Activities" style="text;html=1;strokeColor=none;fillColor=none;align=center;verticalAlign=middle;whiteSpace=wrap;rounded=0;fontStyle=1;labelBackgroundColor=none;" vertex="1" parent="1">
          <mxGeometry x="1610" y="100" width="105" height="30" as="geometry" />
        </mxCell>
        <mxCell id="UpvC00llTbCv9nwqcYSf-4" value="Quality Assurance" style="rounded=0;whiteSpace=wrap;html=1;fontStyle=1;labelBackgroundColor=none;strokeColor=#6c8ebf;fillColor=none;" vertex="1" parent="1">
          <mxGeometry x="1602.5" y="140" width="120" height="30" as="geometry" />
        </mxCell>
        <mxCell id="UpvC00llTbCv9nwqcYSf-5" value="Just In Time" style="rounded=0;whiteSpace=wrap;html=1;fontStyle=1;labelBackgroundColor=none;strokeColor=#6c8ebf;fillColor=none;" vertex="1" parent="1">
          <mxGeometry x="1602.5" y="185" width="120" height="30" as="geometry" />
        </mxCell>
        <mxCell id="UpvC00llTbCv9nwqcYSf-6" value="RfQ" style="rounded=0;whiteSpace=wrap;html=1;fontStyle=1;labelBackgroundColor=none;strokeColor=#6c8ebf;fillColor=none;" vertex="1" parent="1">
          <mxGeometry x="1602.5" y="230" width="120" height="30" as="geometry" />
        </mxCell>
        <mxCell id="PH7Al6qgaLLOiHlaQfq8-1" value="To produce excellent quality in their product output, Cold Moo will need &lt;br&gt;reliable, good quality machinery and tools at their disposal.&amp;nbsp;" style="text;html=1;align=left;verticalAlign=middle;resizable=0;points=[];autosize=1;strokeColor=none;fillColor=none;" vertex="1" parent="1">
          <mxGeometry x="1195.31" y="1208.5" width="400" height="40" as="geometry" />
        </mxCell>
        <mxCell id="JNmNfr8gIHuNh-vd-6k4-1" value="In order to deliver the right goods or services to customers, the marketing and sales teams for Gotham Treats must work together to understand their needs and preferences." style="text;html=1;strokeColor=none;fillColor=none;align=left;verticalAlign=top;whiteSpace=wrap;rounded=0;" vertex="1" parent="1">
          <mxGeometry x="1195.31" y="540" width="474.69" height="30" as="geometry" />
        </mxCell>
        <mxCell id="JNmNfr8gIHuNh-vd-6k4-2" value="Cold Moo must offer impeccable service to its customers through its policies and processes applied by its employees" style="text;html=1;strokeColor=none;fillColor=none;align=left;verticalAlign=top;whiteSpace=wrap;rounded=0;" vertex="1" parent="1">
          <mxGeometry x="1195.31" y="900" width="380" height="30" as="geometry" />
        </mxCell>
        <mxCell id="PH7Al6qgaLLOiHlaQfq8-2" value="When there is a problem in Cold Moo&#39;s tools and/or machinery, they will&lt;br&gt;need to have a replacement as soon as possible so they can get back to&lt;br&gt;their full work efficiency." style="text;html=1;align=left;verticalAlign=middle;resizable=0;points=[];autosize=1;strokeColor=none;fillColor=none;" vertex="1" parent="1">
          <mxGeometry x="1195.31" y="1268.5" width="410" height="60" as="geometry" />
        </mxCell>
        <mxCell id="9BXAEeA0J2inGZmW2LSl-1" value="The Gotham Treats HR team must focus on recruiting and keeping top employees by fostering a great workplace culture, providing competitive pay and benefits, and giving competitive benefits." style="text;html=1;strokeColor=none;fillColor=none;align=left;verticalAlign=top;whiteSpace=wrap;rounded=0;" vertex="1" parent="1">
          <mxGeometry x="1205.31" y="980" width="380" height="30" as="geometry" />
        </mxCell>
        <mxCell id="9BXAEeA0J2inGZmW2LSl-2" value="With training, coaching, and mentorship programs, Gotham Treats HR management seeks to enhance employees&#39; professional development and career advancement inside the company,&amp;nbsp; fostering employee engagement and satisfaction." style="text;html=1;strokeColor=none;fillColor=none;align=left;verticalAlign=top;whiteSpace=wrap;rounded=0;" vertex="1" parent="1">
          <mxGeometry x="1205.31" y="1030" width="380" height="30" as="geometry" />
        </mxCell>
        <mxCell id="9BXAEeA0J2inGZmW2LSl-3" value="Lead Generation" style="rounded=0;whiteSpace=wrap;html=1;fontStyle=1;labelBackgroundColor=none;strokeColor=none;fillColor=#ffe6cc;" vertex="1" parent="1">
          <mxGeometry x="1063.31" y="590" width="120" height="30" as="geometry" />
        </mxCell>
        <mxCell id="9BXAEeA0J2inGZmW2LSl-4" value="Cold Moo must have IT systems, processes and policies in place that are robust enough to support store operations reliably and consistently" style="text;html=1;strokeColor=none;fillColor=none;align=left;verticalAlign=top;whiteSpace=wrap;rounded=0;" vertex="1" parent="1">
          <mxGeometry x="1205.31" y="860" width="380" height="30" as="geometry" />
        </mxCell>
        <mxCell id="9BXAEeA0J2inGZmW2LSl-5" value="By developing marketing strategies, producing content, and running advertisements to draw in potential clients, marketing teams generate leads. Sales teams strive to turn those leads into actual sales." style="text;html=1;strokeColor=none;fillColor=none;align=left;verticalAlign=top;whiteSpace=wrap;rounded=0;" vertex="1" parent="1">
          <mxGeometry x="1195" y="590" width="575" height="30" as="geometry" />
        </mxCell>
        <mxCell id="9BXAEeA0J2inGZmW2LSl-6" value="To make sure that they are aligned in their approaches to generating revenue, both teams collaborate closely. Sales teams give feedback on the efficacy of marketing campaigns, while marketing teams supply sales teams with leads and customer insights." style="text;html=1;strokeColor=none;fillColor=none;align=left;verticalAlign=top;whiteSpace=wrap;rounded=0;" vertex="1" parent="1">
          <mxGeometry x="1195" y="630" width="685" height="30" as="geometry" />
        </mxCell>
        <mxCell id="ZBmALRN2aR2WBudRcQcO-1" value="Gotham Treats can use technology to gather and analyze information on customer behavior, sales trends, and inventory levels. Making informed decisions about menu items, pricing, and promotions is possible using this data." style="text;html=1;strokeColor=none;fillColor=none;align=left;verticalAlign=top;whiteSpace=wrap;rounded=0;" vertex="1" parent="1">
          <mxGeometry x="1205.31" y="1100" width="574.69" height="30" as="geometry" />
        </mxCell>
        <mxCell id="ZBmALRN2aR2WBudRcQcO-2" value="Gotham Treats must have integration of technology to streamline their operations for more efficiency and increasing sales. For example, technology to simply their ppoint-of-sales and speed up the ordering process.&amp;nbsp;" style="text;html=1;strokeColor=none;fillColor=none;align=left;verticalAlign=top;whiteSpace=wrap;rounded=0;" vertex="1" parent="1">
          <mxGeometry x="1205.31" y="1153.5" width="594.69" height="30" as="geometry" />
        </mxCell>
      </root>
    </mxGraphModel>
  </diagram>
  <diagram id="HK8U6vpQMK8KsfEBEAPc" name="REF [ARCHIVE]">
    <mxGraphModel grid="1" page="1" gridSize="10" guides="1" tooltips="1" connect="1" arrows="1" fold="1" pageScale="1" pageWidth="850" pageHeight="1100" math="0" shadow="0">
      <root>
        <mxCell id="0" />
        <mxCell id="1" parent="0" />
        <mxCell id="kHnU9RHqJQQl9LEbeg1c-1" value="" style="rounded=0;whiteSpace=wrap;html=1;strokeColor=none;labelBackgroundColor=none;" vertex="1" parent="1">
          <mxGeometry x="900" y="60" width="720" height="410" as="geometry" />
        </mxCell>
        <mxCell id="kHnU9RHqJQQl9LEbeg1c-2" value="Inbound Logistics" style="rounded=0;whiteSpace=wrap;html=1;labelBackgroundColor=none;" vertex="1" parent="1">
          <mxGeometry x="910" y="540" width="110" height="90" as="geometry" />
        </mxCell>
        <mxCell id="kHnU9RHqJQQl9LEbeg1c-3" value="Operations" style="rounded=0;whiteSpace=wrap;html=1;labelBackgroundColor=none;" vertex="1" parent="1">
          <mxGeometry x="1020" y="540" width="110" height="90" as="geometry" />
        </mxCell>
        <mxCell id="kHnU9RHqJQQl9LEbeg1c-4" value="Outbound Logistics" style="rounded=0;whiteSpace=wrap;html=1;labelBackgroundColor=none;" vertex="1" parent="1">
          <mxGeometry x="1130" y="540" width="110" height="90" as="geometry" />
        </mxCell>
        <mxCell id="kHnU9RHqJQQl9LEbeg1c-5" value="Marketing &amp;amp; Sales" style="rounded=0;whiteSpace=wrap;html=1;labelBackgroundColor=none;" vertex="1" parent="1">
          <mxGeometry x="1240" y="540" width="110" height="90" as="geometry" />
        </mxCell>
        <mxCell id="kHnU9RHqJQQl9LEbeg1c-6" value="Service" style="rounded=0;whiteSpace=wrap;html=1;labelBackgroundColor=none;" vertex="1" parent="1">
          <mxGeometry x="1350" y="540" width="110" height="90" as="geometry" />
        </mxCell>
        <mxCell id="kHnU9RHqJQQl9LEbeg1c-7" value="Procurement" style="rounded=0;whiteSpace=wrap;html=1;labelBackgroundColor=none;" vertex="1" parent="1">
          <mxGeometry x="910" y="720" width="550" height="30" as="geometry" />
        </mxCell>
        <mxCell id="kHnU9RHqJQQl9LEbeg1c-8" value="Technology Department" style="rounded=0;whiteSpace=wrap;html=1;labelBackgroundColor=none;" vertex="1" parent="1">
          <mxGeometry x="910" y="690" width="550" height="30" as="geometry" />
        </mxCell>
        <mxCell id="kHnU9RHqJQQl9LEbeg1c-9" value="Human Resource Management" style="rounded=0;whiteSpace=wrap;html=1;labelBackgroundColor=none;" vertex="1" parent="1">
          <mxGeometry x="910" y="660" width="550" height="30" as="geometry" />
        </mxCell>
        <mxCell id="kHnU9RHqJQQl9LEbeg1c-10" value="Firm Infrastructure" style="rounded=0;whiteSpace=wrap;html=1;labelBackgroundColor=none;" vertex="1" parent="1">
          <mxGeometry x="910" y="630" width="550" height="30" as="geometry" />
        </mxCell>
        <mxCell id="kHnU9RHqJQQl9LEbeg1c-11" value="Margin" style="triangle;whiteSpace=wrap;html=1;labelBackgroundColor=none;" vertex="1" parent="1">
          <mxGeometry x="1460" y="540" width="60" height="210" as="geometry" />
        </mxCell>
        <mxCell id="kHnU9RHqJQQl9LEbeg1c-12" value="Value Retail" style="text;html=1;strokeColor=none;fillColor=none;align=center;verticalAlign=middle;whiteSpace=wrap;rounded=0;fontStyle=1;labelBackgroundColor=none;" vertex="1" parent="1">
          <mxGeometry x="910" y="500" width="90" height="30" as="geometry" />
        </mxCell>
        <mxCell id="kHnU9RHqJQQl9LEbeg1c-13" value="" style="shape=image;verticalLabelPosition=bottom;labelBackgroundColor=none;verticalAlign=top;aspect=fixed;imageAspect=0;image=https://i.pinimg.com/736x/53/21/0f/53210f9d894d59f817711ec2cded18b9.jpg;" vertex="1" parent="1">
          <mxGeometry x="910" y="70" width="411.73" height="270" as="geometry" />
        </mxCell>
        <mxCell id="kHnU9RHqJQQl9LEbeg1c-14" value="" style="shape=image;verticalLabelPosition=bottom;labelBackgroundColor=none;verticalAlign=top;aspect=fixed;imageAspect=0;image=https://d20ohkaloyme4g.cloudfront.net/img/document_thumbnails/efa958f122691436f2fd2fbc3a0c407d/thumb_1200_1698.png;" vertex="1" parent="1">
          <mxGeometry x="1335" y="70" width="261.13" height="370" as="geometry" />
        </mxCell>
        <mxCell id="kHnU9RHqJQQl9LEbeg1c-15" value="REFERENCE" style="text;html=1;strokeColor=none;fillColor=none;align=center;verticalAlign=middle;whiteSpace=wrap;rounded=0;fontStyle=1;labelBackgroundColor=none;" vertex="1" parent="1">
          <mxGeometry x="1245" y="30" width="90" height="30" as="geometry" />
        </mxCell>
        <UserObject label="https://www.business-to-you.com/value-chain/" link="https://www.business-to-you.com/value-chain/" id="kHnU9RHqJQQl9LEbeg1c-16">
          <mxCell style="text;whiteSpace=wrap;html=1;" vertex="1" parent="1">
            <mxGeometry x="910" y="360" width="280" height="40" as="geometry" />
          </mxCell>
        </UserObject>
        <UserObject label="https://youtu.be/SI5lYaZaUlg" link="https://youtu.be/SI5lYaZaUlg" id="kHnU9RHqJQQl9LEbeg1c-17">
          <mxCell style="text;whiteSpace=wrap;html=1;" vertex="1" parent="1">
            <mxGeometry x="910" y="390" width="190" height="30" as="geometry" />
          </mxCell>
        </UserObject>
        <UserObject label="https://youtu.be/a9LWp9y2fMw" link="https://youtu.be/a9LWp9y2fMw" id="kHnU9RHqJQQl9LEbeg1c-18">
          <mxCell style="text;whiteSpace=wrap;html=1;" vertex="1" parent="1">
            <mxGeometry x="910" y="420" width="200" height="40" as="geometry" />
          </mxCell>
        </UserObject>
        <mxCell id="kHnU9RHqJQQl9LEbeg1c-19" value="Value to Achieve for Each Activity" style="text;html=1;strokeColor=none;fillColor=none;align=center;verticalAlign=middle;whiteSpace=wrap;rounded=0;fontStyle=5;labelBackgroundColor=none;" vertex="1" parent="1">
          <mxGeometry x="1025" y="800" width="260" height="30" as="geometry" />
        </mxCell>
        <mxCell id="kHnU9RHqJQQl9LEbeg1c-20" value="Activities" style="text;html=1;strokeColor=none;fillColor=none;align=center;verticalAlign=middle;whiteSpace=wrap;rounded=0;fontStyle=1;labelBackgroundColor=none;" vertex="1" parent="1">
          <mxGeometry x="885" y="830" width="230" height="30" as="geometry" />
        </mxCell>
        <mxCell id="kHnU9RHqJQQl9LEbeg1c-21" value="Values to Achieve" style="text;html=1;strokeColor=none;fillColor=none;align=center;verticalAlign=middle;whiteSpace=wrap;rounded=0;fontStyle=1;labelBackgroundColor=none;" vertex="1" parent="1">
          <mxGeometry x="1190" y="830" width="230" height="30" as="geometry" />
        </mxCell>
        <mxCell id="kHnU9RHqJQQl9LEbeg1c-22" value="Obtaining Raw Material from Supplier" style="text;html=1;strokeColor=none;fillColor=none;align=center;verticalAlign=middle;whiteSpace=wrap;rounded=0;" vertex="1" parent="1">
          <mxGeometry x="885" y="870" width="240" height="30" as="geometry" />
        </mxCell>
        <mxCell id="kHnU9RHqJQQl9LEbeg1c-23" value="End-Product Production" style="text;html=1;strokeColor=none;fillColor=none;align=center;verticalAlign=middle;whiteSpace=wrap;rounded=0;" vertex="1" parent="1">
          <mxGeometry x="885" y="910" width="240" height="30" as="geometry" />
        </mxCell>
        <mxCell id="kHnU9RHqJQQl9LEbeg1c-24" value="Product Distribution" style="text;html=1;strokeColor=none;fillColor=none;align=center;verticalAlign=middle;whiteSpace=wrap;rounded=0;" vertex="1" parent="1">
          <mxGeometry x="885" y="950" width="240" height="30" as="geometry" />
        </mxCell>
        <mxCell id="kHnU9RHqJQQl9LEbeg1c-25" value="Product Promotion" style="text;html=1;strokeColor=none;fillColor=none;align=center;verticalAlign=middle;whiteSpace=wrap;rounded=0;" vertex="1" parent="1">
          <mxGeometry x="885" y="1000" width="240" height="30" as="geometry" />
        </mxCell>
        <mxCell id="kHnU9RHqJQQl9LEbeg1c-26" value="Sales Transaction" style="text;html=1;strokeColor=none;fillColor=none;align=center;verticalAlign=middle;whiteSpace=wrap;rounded=0;" vertex="1" parent="1">
          <mxGeometry x="880" y="1070" width="240" height="30" as="geometry" />
        </mxCell>
        <mxCell id="kHnU9RHqJQQl9LEbeg1c-27" value="Employees work on converting the raw material to finished goods ..." style="text;html=1;strokeColor=none;fillColor=none;align=left;verticalAlign=top;whiteSpace=wrap;rounded=0;" vertex="1" parent="1">
          <mxGeometry x="1190" y="920" width="240" height="30" as="geometry" />
        </mxCell>
        <mxCell id="kHnU9RHqJQQl9LEbeg1c-28" value="..." style="text;html=1;strokeColor=none;fillColor=none;align=left;verticalAlign=top;whiteSpace=wrap;rounded=0;" vertex="1" parent="1">
          <mxGeometry x="1187.5" y="950" width="240" height="30" as="geometry" />
        </mxCell>
        <mxCell id="kHnU9RHqJQQl9LEbeg1c-29" value="By using social media and offering competitive prices like discounts, customers will be attracted to try and purchase items / creating promotions depending on the materials stocks" style="text;html=1;strokeColor=none;fillColor=none;align=left;verticalAlign=top;whiteSpace=wrap;rounded=0;" vertex="1" parent="1">
          <mxGeometry x="1187.5" y="980" width="337.5" height="30" as="geometry" />
        </mxCell>
        <mxCell id="kHnU9RHqJQQl9LEbeg1c-30" value="Once customer has performed transaction to the cashier,&amp;nbsp;it will be updated into today&#39;s transaction" style="text;html=1;strokeColor=none;fillColor=none;align=left;verticalAlign=top;whiteSpace=wrap;rounded=0;" vertex="1" parent="1">
          <mxGeometry x="1190" y="1060" width="335" height="30" as="geometry" />
        </mxCell>
        <mxCell id="kHnU9RHqJQQl9LEbeg1c-31" value="Quality /&amp;nbsp;Cost-effectiveness /&amp;nbsp;Reliability" style="text;html=1;strokeColor=none;fillColor=none;align=left;verticalAlign=top;whiteSpace=wrap;rounded=0;" vertex="1" parent="1">
          <mxGeometry x="1427.5" y="860" width="220" height="30" as="geometry" />
        </mxCell>
      </root>
    </mxGraphModel>
  </diagram>
</mxfile>
